<?xml version="1.0" standalone="no"?>
<!DOCTYPE svg PUBLIC "-//W3C//DTD SVG 20010904//EN"
 "http://www.w3.org/TR/2001/REC-SVG-20010904/DTD/svg10.dtd">
<svg version="1.0" xmlns="http://www.w3.org/2000/svg"
 width="300.000000pt" height="233.000000pt" viewBox="0 0 300.000000 233.000000"
 preserveAspectRatio="xMidYMid meet">
<metadata>
Created by potrace 1.10, written by Peter Selinger 2001-2011
</metadata>
<g transform="translate(0.000000,233.000000) scale(0.100000,-0.100000)"
fill="#000000" stroke="none">
<path d="M1165 2274 c-113 -25 -190 -69 -280 -159 -56 -56 -90 -100 -112 -145
-49 -101 -160 -365 -168 -398 -8 -38 14 -83 56 -112 26 -19 34 -21 53 -10 26
14 37 33 116 220 32 74 72 166 90 203 73 149 214 237 382 237 49 0 58 -3 58
-17 0 -19 -14 -53 -225 -553 -76 -179 -141 -337 -145 -351 -10 -33 10 -79 45
-107 35 -28 56 -28 82 1 12 12 87 177 168 367 209 491 219 514 229 514 13 1
11 5 191 -419 91 -214 171 -401 177 -415 18 -38 49 -70 68 -70 26 0 71 40 86
76 16 39 22 20 -104 319 -108 257 -220 520 -244 577 -31 73 -23 82 70 75 102
-7 179 -37 243 -95 69 -61 105 -120 169 -272 28 -69 63 -149 76 -178 13 -29
24 -56 24 -60 0 -5 13 -21 29 -36 21 -20 35 -26 49 -21 31 9 82 72 82 101 0
29 -138 365 -183 444 -42 74 -139 174 -209 215 -145 85 -299 103 -488 57 -24
-6 -52 -5 -85 5 -81 21 -220 25 -300 7z m250 -40 c39 -9 84 -16 100 -16 17 0
62 7 100 16 188 42 372 -11 505 -144 76 -76 108 -133 210 -378 l73 -174 -36
-36 c-20 -20 -38 -34 -40 -32 -2 3 -43 100 -92 215 -49 116 -100 228 -113 250
-80 131 -226 214 -378 215 -124 0 -150 -12 -124 -58 5 -9 21 -46 36 -82 23
-58 49 -119 74 -175 48 -107 60 -136 60 -141 0 -3 6 -20 14 -37 35 -78 56
-126 56 -131 0 -3 12 -31 26 -63 33 -76 40 -91 58 -133 8 -19 26 -60 40 -91
13 -31 26 -63 28 -71 3 -13 -59 -94 -67 -87 -1 2 -19 42 -38 89 -31 76 -58
137 -103 237 -8 17 -14 34 -14 37 0 3 -12 31 -26 63 -14 32 -32 74 -40 93 -18
42 -25 57 -58 133 -14 32 -26 60 -26 63 0 3 -6 20 -14 37 -42 92 -61 137 -80
186 -21 54 -46 79 -46 46 0 -9 -12 -42 -26 -73 -14 -31 -35 -79 -46 -107 -10
-27 -27 -68 -37 -90 -23 -50 -286 -673 -295 -699 -6 -18 -10 -16 -46 19 -22
21 -38 41 -36 44 14 24 406 959 406 968 0 28 -168 31 -258 4 -79 -24 -150 -70
-203 -130 -46 -51 -71 -97 -125 -227 -33 -80 -60 -142 -100 -231 -8 -17 -14
-38 -14 -46 0 -30 -22 -29 -56 4 -19 18 -34 36 -34 41 0 4 11 31 24 60 13 29
36 82 50 118 92 225 133 299 205 370 138 134 318 186 506 144z"/>
<path d="M556 1441 c-16 -17 -55 -104 -166 -371 -29 -69 -58 -138 -66 -155
-25 -55 -134 -316 -134 -320 0 -3 -13 -33 -28 -67 -16 -35 -59 -136 -96 -225
-59 -140 -66 -164 -55 -181 35 -56 191 -98 325 -88 174 13 328 104 438 260 43
61 216 449 216 485 0 29 -43 85 -73 95 -54 19 -60 11 -181 -279 -64 -152 -93
-206 -135 -252 -78 -86 -174 -131 -298 -140 -62 -5 -73 -3 -79 11 -6 15 22 88
105 281 70 162 125 289 204 475 51 118 98 215 104 215 7 0 95 -82 195 -181
101 -100 193 -187 205 -193 33 -17 46 -14 81 20 24 24 32 40 32 66 0 33 -19
55 -264 299 -276 277 -291 288 -330 245z m304 -276 c148 -148 270 -271 270
-273 0 -5 -60 -62 -66 -62 -3 0 -102 97 -221 215 -118 118 -219 215 -224 215
-5 0 -9 -4 -9 -10 0 -5 -12 -35 -26 -67 -44 -100 -51 -117 -104 -243 -36 -85
-57 -136 -70 -165 -30 -69 -57 -131 -130 -305 -45 -107 -91 -213 -101 -235
-27 -55 -14 -65 87 -66 101 -1 147 7 204 36 123 60 180 116 234 230 42 86 166
381 166 393 0 4 5 13 12 20 9 9 19 5 45 -20 18 -18 33 -35 33 -40 0 -4 -11
-32 -25 -62 -14 -30 -25 -57 -25 -60 0 -5 -10 -27 -60 -141 -5 -11 -21 -47
-35 -80 -15 -33 -34 -76 -43 -95 -28 -60 -169 -192 -242 -227 -127 -60 -285
-69 -422 -22 -70 24 -80 37 -58 77 5 9 16 33 24 52 8 19 27 62 41 95 15 33 36
83 46 110 11 28 24 59 29 70 41 91 376 885 385 913 4 13 9 22 11 20 2 -2 125
-124 274 -273z"/>
<path d="M2173 1228 c-264 -262 -295 -298 -295 -335 0 -32 61 -93 93 -93 15 0
85 63 220 196 108 108 201 194 206 191 12 -7 21 -29 233 -525 99 -233 180
-429 180 -437 0 -20 -42 -29 -106 -21 -160 19 -284 110 -352 258 -12 26 -22
50 -22 53 0 3 -9 24 -19 48 -11 23 -43 96 -71 162 -56 131 -72 155 -105 155
-25 0 -67 -34 -85 -68 -16 -32 -11 -49 77 -252 105 -243 115 -261 190 -340
146 -156 341 -219 537 -175 43 9 93 23 112 31 l34 14 0 69 c0 56 -6 82 -29
133 -16 35 -59 133 -94 218 -413 985 -393 943 -441 948 -24 3 -58 -27 -263
-230z m541 -425 c148 -350 271 -647 274 -659 3 -16 -2 -24 -20 -29 -12 -3 -32
-10 -43 -15 -67 -29 -215 -38 -307 -19 -125 27 -265 126 -341 242 -18 29 -73
146 -122 260 l-88 209 36 36 c20 20 38 34 40 31 3 -2 46 -103 96 -223 122
-290 151 -334 268 -404 75 -45 145 -63 244 -63 87 0 119 6 119 21 0 5 -14 39
-31 77 -32 73 -39 89 -63 143 -8 19 -26 61 -40 93 -14 32 -26 60 -26 63 0 5
-18 46 -55 129 -11 25 -186 435 -231 543 l-13 33 -222 -220 c-122 -122 -224
-221 -228 -220 -3 0 -18 15 -33 33 l-27 33 267 270 c147 148 269 271 272 271
3 1 126 -285 274 -635z"/>
<path d="M1299 972 c-140 -139 -189 -194 -189 -212 0 -18 50 -74 187 -212 162
-163 191 -188 218 -188 27 0 56 25 218 188 138 139 187 194 187 212 0 18 -49
73 -188 212 -154 154 -193 188 -216 188 -23 0 -62 -34 -217 -188z m411 -27
l185 -185 -190 -190 -190 -190 -190 190 -190 190 185 183 c102 101 190 184
195 185 6 1 93 -82 195 -183z"/>
<path d="M1397 882 c-64 -64 -117 -122 -117 -127 0 -6 53 -63 118 -128 l117
-117 118 118 c64 64 117 122 117 127 0 6 -53 63 -118 128 l-117 117 -118 -118z
m220 -36 c71 -71 83 -87 75 -103 -6 -10 -46 -53 -91 -96 -66 -65 -83 -77 -98
-69 -10 6 -54 47 -97 92 l-79 81 39 42 c102 108 130 134 148 136 11 0 52 -32
103 -83z"/>
</g>
</svg>
